# xmcd CD database file
#
# Track frame offsets:
#	150
#	14231
#	28889
#	43303
#	56622
#	69880
#	81459
#	95630
#	108344
#	123521
#	139594
#	152877
#	167297
#	180991
#	195917
#	208403
#	220972
#	235380
#	248748
#	260372
#	274548
#	290148
#
# Disc length: 4060 seconds
#
# Revision: 2
# Processed by: cddbd v1.5.2PL0 Copyright (c) Steve Scherf et al.
# Submitted via: CDex 1.73
#
DISCID=4a0fda16
DTITLE=Various Artist - Jazz in the Charts 016/100 (1934)
DYEAR=1934
DGENRE=Jazz
TTITLE0=You're Gonna Lose Your Gal - Casa Loma Orchestra
TTITLE1=Your Gonna Lose Your Gal - Harry Reeser and His Orchestra
TTITLE2=I Gotta Right to Sing the Blues - Benny Goodman and His Orchestra
TTITLE3=Dixie Lee - Casa Loma Orchestra
TTITLE4=Riffin' the Scotch - Benny Goodman and His Orchestra
TTITLE5=Washington Squabble - Claude Hopkins and His Orchestra
TTITLE6=Got The Jitters - Ben Pollack and His Orchestra
TTITLE7=Love Me or Leave Me - Benny Goodman and His Orchestra
TTITLE8=You Have Taken My Heart - Casa Loma Orchestra
TTITLE9=My Little Grass Shack (In Kealakehua, Hawaii) - Ben Pollack and His Orchestra
TTITLE10=Daybreak Express - Duke Ellington and His Famous Orchestra
TTITLE11=Ol' Pappy - Benny Goodman and His Orchestra
TTITLE12=Infatuation - Casa Loma Orchestra
TTITLE13=The Beat of My Heart - Ben Pollack and His Orchestra
TTITLE14=Love Me - Casa Loma Orchestra
TTITLE15=I've Found a New Baby - Mills Brothers
TTITLE16=Jitter Bug - Cab Calloway and His Orchestra
TTITLE17=The Champagne Waltz - Casa Loma Orchestra
TTITLE18=The House Is Haunted (By the Echo of Your Last Goodbye) - Casa Loma Orchestra
TTITLE19=A Thousand Goodnights - Adrian Rollini and His Orchestra
TTITLE20=Coctails for Two - Duke Ellington and His Famous Orchestra
TTITLE21=Basin Street Blues - Benny Goodman and The Charleston Chasers
EXTD=YEAR: 1934
EXTT0=
EXTT1=
EXTT2=
EXTT3=
EXTT4=
EXTT5=
EXTT6=
EXTT7=
EXTT8=
EXTT9=
EXTT10=
EXTT11=
EXTT12=
EXTT13=
EXTT14=
EXTT15=
EXTT16=
EXTT17=
EXTT18=
EXTT19=
EXTT20=
EXTT21=
PLAYORDER=
